<svg width="209" height="100" viewBox="0 0 209 100" fill="none" xmlns="http://www.w3.org/2000/svg">
<path d="M18.5985 0.0959988C21.3185 0.0959988 23.6865 0.527999 25.7025 1.392C27.7185 2.256 29.6065 3.584 31.3665 5.376L26.7585 10.704C24.5185 8.08 21.7985 6.768 18.5985 6.768C15.3985 6.768 12.8065 7.856 10.8225 10.032C8.8705 12.176 7.8945 14.944 7.8945 18.336C7.8945 21.728 8.8705 24.512 10.8225 26.688C12.8065 28.864 15.3985 29.952 18.5985 29.952C21.8625 29.952 24.6145 28.608 26.8545 25.92L31.4145 31.248C28.1505 34.832 23.8785 36.624 18.5985 36.624C13.3185 36.624 8.9825 34.896 5.5905 31.44C2.1985 27.952 0.5025 23.584 0.5025 18.336C0.5025 13.088 2.1985 8.736 5.5905 5.28C8.9825 1.824 13.3185 0.0959988 18.5985 0.0959988ZM50.6141 0.0959988C55.7981 0.0959988 60.1181 1.84 63.5741 5.328C67.0301 8.784 68.7581 13.152 68.7581 18.432C68.7581 23.68 67.0301 28.032 63.5741 31.488C60.1181 34.912 55.7981 36.624 50.6141 36.624C45.3981 36.624 41.0781 34.912 37.6541 31.488C34.2301 28.032 32.5181 23.68 32.5181 18.432C32.5181 13.12 34.2301 8.736 37.6541 5.28C41.0781 1.824 45.3981 0.0959988 50.6141 0.0959988ZM58.2941 10.032C56.3101 7.856 53.7501 6.768 50.6141 6.768C47.4781 6.768 44.9021 7.856 42.8861 10.032C40.9021 12.208 39.9101 15.008 39.9101 18.432C39.9101 21.792 40.9021 24.56 42.8861 26.736C44.9021 28.88 47.4781 29.952 50.6141 29.952C53.7501 29.952 56.3101 28.88 58.2941 26.736C60.3101 24.56 61.3181 21.792 61.3181 18.432C61.3181 15.008 60.3101 12.208 58.2941 10.032ZM109.244 0.0959988V36H101.948V21.168L91.6759 36.48H91.2919L81.0199 21.168V36H73.6759V0.0959988H73.8679L91.4839 24.96L109.052 0.0959988H109.244ZM139.085 0.719999V7.392H123.629V15.024H137.021V21.216H123.629V29.328H139.469V36H116.285V0.719999H139.085ZM155.924 0.719999C161.972 0.719999 166.692 2.272 170.084 5.376C173.508 8.48 175.22 12.8 175.22 18.336C175.22 23.904 173.524 28.24 170.132 31.344C166.74 34.448 162.004 36 155.924 36H144.692V0.719999H155.924ZM155.684 7.44H152.036V29.328H155.684C159.62 29.328 162.612 28.384 164.66 26.496C166.74 24.576 167.78 21.872 167.78 18.384C167.78 14.864 166.74 12.16 164.66 10.272C162.612 8.384 159.62 7.44 155.684 7.44ZM207.732 0.719999L194.916 21.552V36H187.62V21.696L174.708 0.719999H183.204L191.22 14.352L199.236 0.719999H207.732ZM21.5193 52.96C26.2126 52.96 30.1379 54.3467 33.2952 57.12C36.4526 59.8933 38.0312 63.6907 38.0312 68.512C38.0312 73.3333 36.4526 77.1307 33.2952 79.904C30.1379 82.6773 26.2126 84.064 21.5193 84.064H12.4953V100H2.70325V52.96H21.5193ZM20.5593 61.408H12.4953V75.616H20.5593C22.9059 75.616 24.7619 75.0187 26.1273 73.824C27.4926 72.5867 28.1753 70.816 28.1753 68.512C28.1753 66.2507 27.4713 64.5013 26.0633 63.264C24.6979 62.0267 22.8633 61.408 20.5593 61.408ZM56.7023 52.128L79.4223 100H68.6702L65.5983 92.704H47.5503L44.4783 100H33.7263L56.4463 52.128H56.7023ZM56.5743 71.008L50.6223 85.088H62.5263L56.5743 71.008ZM102.823 52.96C107.516 52.96 111.463 54.3253 114.663 57.056C117.905 59.7867 119.527 63.4987 119.527 68.192C119.527 71.392 118.737 74.1653 117.159 76.512C115.623 78.816 113.532 80.5653 110.887 81.76L121.831 100H110.439L100.583 83.424H94.1188V100H84.3908V52.96H102.823ZM101.927 61.408H94.1188V74.976H101.927C104.273 74.976 106.129 74.4 107.495 73.248C108.903 72.0533 109.607 70.368 109.607 68.192C109.607 66.0587 108.903 64.3947 107.495 63.2C106.129 62.0053 104.273 61.408 101.927 61.408ZM163.375 52.96V61.536H148.079V100H138.351V61.536H123.119V52.96H163.375ZM208.694 52.96L191.606 80.736V100H181.878V80.928L164.662 52.96H175.99L186.678 71.136L197.366 52.96H208.694Z" fill="white"/>
</svg>
